<svg xmlns="http://www.w3.org/2000/svg" width="701" height="180" viewBox="0 0 701 180">
  <g fill="#0d8f8f">
    <rect x="26" y="26" width="60" height="60" rx="16"/>
    <rect x="94" y="26" width="60" height="60" rx="16" opacity="0.4"/>
    <rect x="26" y="94" width="60" height="60" rx="16" opacity="0.4"/>
    <rect x="94" y="94" width="60" height="60" rx="16"/>
  </g>
  <path d="M266.07 135.38Q247.89 135.38 237.64 125.26Q227.39 115.13 227.39 96.34L227.39 48.52L247.16 48.52L247.16 95.61Q247.16 107.81 252.16 113.18Q257.16 118.55 266.19 118.55Q275.22 118.55 280.22 113.18Q285.22 107.81 285.22 95.61L285.22 48.52L304.74 48.52L304.74 96.34Q304.74 115.13 294.49 125.26Q284.25 135.38 266.07 135.38M341.95 133.92L322.92 133.92L322.92 68.28L341.10 68.28L341.10 76.09Q344.88 71.82 350.49 69.57Q356.10 67.31 362.81 67.31Q370.62 67.31 376.78 70.42Q382.94 73.53 386.48 79.94Q390.02 86.34 390.02 96.34L390.02 133.92L370.99 133.92L370.99 99.27Q370.99 91.34 367.45 87.56Q363.91 83.78 357.69 83.78Q350.86 83.78 346.40 88.11Q341.95 92.44 341.95 101.47L341.95 133.92M436.62 135.38Q426.38 135.38 416.98 132.64Q407.59 129.89 401.85 125.50L408.56 110.62Q413.93 114.52 421.50 117.02Q429.06 119.52 436.75 119.52Q445.53 119.52 449.37 116.96Q453.22 114.40 453.22 110.37Q453.22 106.96 450.53 104.95Q447.85 102.93 443.39 101.65Q438.94 100.37 433.70 99.21Q428.45 98.05 423.14 96.41Q417.84 94.76 413.38 92.01Q408.93 89.27 406.25 84.82Q403.56 80.36 403.56 73.65Q403.56 66.33 407.53 60.29Q411.49 54.25 419.48 50.66Q427.47 47.06 439.55 47.06Q447.60 47.06 455.41 49.01Q463.22 50.96 469.20 54.62L463.10 69.63Q457.12 66.21 451.08 64.56Q445.04 62.92 439.43 62.92Q430.65 62.92 426.93 65.78Q423.20 68.65 423.20 72.68Q423.20 75.97 425.89 77.98Q428.57 80 432.96 81.28Q437.36 82.56 442.66 83.66Q447.97 84.75 453.28 86.40Q458.58 88.05 463.04 90.73Q467.49 93.42 470.17 97.81Q472.86 102.20 472.86 108.91Q472.86 116.11 468.89 122.09Q464.93 128.06 456.88 131.72Q448.82 135.38 436.62 135.38M543.13 133.92L525.32 133.92L525.32 125.87Q519.83 134.90 505.31 134.90Q493.72 134.90 487.25 129.22Q480.79 123.55 480.79 115.01Q480.79 106.35 487.38 100.86Q493.96 95.37 508.97 95.37L524.10 95.37Q524.10 89.27 520.38 85.85Q516.66 82.44 508.97 82.44Q503.72 82.44 498.66 84.08Q493.60 85.73 490.06 88.54L483.23 75.24Q488.60 71.46 496.16 69.38Q503.72 67.31 511.53 67.31Q526.54 67.31 534.83 74.45Q543.13 81.58 543.13 96.47L543.13 133.92M524.10 113.18L524.10 106.47L511.04 106.47Q504.33 106.47 501.83 108.67Q499.33 110.86 499.33 114.16Q499.33 117.82 502.20 119.95Q505.07 122.09 510.07 122.09Q514.83 122.09 518.61 119.83Q522.39 117.57 524.10 113.18M582.41 134.90Q574 134.90 566.25 132.88Q558.50 130.87 553.99 127.82L560.33 114.16Q564.72 117.08 570.95 118.79Q577.17 120.50 583.15 120.50Q589.73 120.50 592.48 118.91Q595.22 117.33 595.22 114.52Q595.22 111.35 591.32 110.25Q587.42 109.15 581.93 108.30Q577.53 107.69 572.96 106.71Q568.38 105.74 564.42 103.79Q560.45 101.83 558.01 98.17Q555.57 94.51 555.57 88.54Q555.57 79.26 563.57 73.29Q571.56 67.31 585.95 67.31Q592.66 67.31 599.55 68.83Q606.45 70.36 611.21 73.04L604.86 86.58Q599.98 83.78 595.22 82.74Q590.47 81.70 585.95 81.70Q579.49 81.70 576.62 83.47Q573.75 85.24 573.75 87.80Q573.75 90.61 576.62 91.89Q579.49 93.17 584 93.84Q588.51 94.51 593.58 95.43Q598.64 96.34 603.15 98.24Q607.67 100.13 610.53 103.85Q613.40 107.57 613.40 114.03Q613.40 123.18 605.29 129.04Q597.18 134.90 582.41 134.90M647.20 134.90Q638.78 134.90 631.03 132.88Q623.28 130.87 618.77 127.82L625.11 114.16Q629.51 117.08 635.73 118.79Q641.95 120.50 647.93 120.50Q654.52 120.50 657.26 118.91Q660.01 117.33 660.01 114.52Q660.01 111.35 656.10 110.25Q652.20 109.15 646.71 108.30Q642.32 107.69 637.74 106.71Q633.17 105.74 629.20 103.79Q625.24 101.83 622.80 98.17Q620.36 94.51 620.36 88.54Q620.36 79.26 628.35 73.29Q636.34 67.31 650.73 67.31Q657.44 67.31 664.34 68.83Q671.23 70.36 675.99 73.04L669.64 86.58Q664.76 83.78 660.01 82.74Q655.25 81.70 650.73 81.70Q644.27 81.70 641.40 83.47Q638.53 85.24 638.53 87.80Q638.53 90.61 641.40 91.89Q644.27 93.17 648.78 93.84Q653.30 94.51 658.36 95.43Q663.42 96.34 667.94 98.24Q672.45 100.13 675.32 103.85Q678.18 107.57 678.18 114.03Q678.18 123.18 670.07 129.04Q661.96 134.90 647.20 134.90" fill="#1a1a1a"/>
</svg>
