<svg width="1200" height="630" viewBox="0 0 1200 630" xmlns="http://www.w3.org/2000/svg">
  <defs>
    <linearGradient id="brand" x1="0" y1="0" x2="1" y2="1">
      <stop offset="0" stop-color="#006d6d"/><stop offset="0.5" stop-color="#0d8f8f"/><stop offset="1" stop-color="#2dd4cf"/>
    </linearGradient>
    <pattern id="grid" width="60" height="60" patternUnits="userSpaceOnUse">
      <path d="M60 0H0V60" fill="none" stroke="#ffffff" stroke-opacity="0.045"/>
    </pattern>
  </defs>
  <rect width="1200" height="630" fill="#0b0f17"/>
  <rect width="1200" height="630" fill="url(#grid)"/>
  <rect width="1200" height="6" fill="url(#brand)"/>

  <rect x="100" y="175" width="58" height="58" rx="14" fill="#0d8f8f"/>
  <rect x="172" y="175" width="58" height="58" rx="14" fill="#2dd4cf"/>
  <rect x="100" y="247" width="58" height="58" rx="14" fill="#2dd4cf"/>
  <rect x="172" y="247" width="58" height="58" rx="14" fill="#0d8f8f"/>

  <path d="M335.10 295.80Q312.75 295.80 300.15 283.35Q287.55 270.90 287.55 247.80L287.55 189L311.85 189L311.85 246.90Q311.85 261.90 318 268.50Q324.15 275.10 335.25 275.10Q346.35 275.10 352.50 268.50Q358.65 261.90 358.65 246.90L358.65 189L382.65 189L382.65 247.80Q382.65 270.90 370.05 283.35Q357.45 295.80 335.10 295.80M428.40 294L405 294L405 213.30L427.35 213.30L427.35 222.90Q432 217.65 438.90 214.88Q445.80 212.10 454.05 212.10Q463.65 212.10 471.22 215.93Q478.80 219.75 483.15 227.63Q487.50 235.50 487.50 247.80L487.50 294L464.10 294L464.10 251.40Q464.10 241.65 459.75 237Q455.40 232.35 447.75 232.35Q439.35 232.35 433.88 237.68Q428.40 243 428.40 254.10L428.40 294M544.80 295.80Q532.20 295.80 520.65 292.43Q509.10 289.05 502.05 283.65L510.30 265.35Q516.90 270.15 526.20 273.23Q535.50 276.30 544.95 276.30Q555.75 276.30 560.47 273.15Q565.20 270 565.20 265.05Q565.20 260.85 561.90 258.38Q558.60 255.90 553.13 254.32Q547.65 252.75 541.20 251.32Q534.75 249.90 528.22 247.88Q521.70 245.85 516.22 242.47Q510.75 239.10 507.45 233.63Q504.15 228.15 504.15 219.90Q504.15 210.90 509.02 203.48Q513.90 196.05 523.72 191.63Q533.55 187.20 548.40 187.20Q558.30 187.20 567.90 189.60Q577.50 192 584.85 196.50L577.35 214.95Q570 210.75 562.57 208.73Q555.15 206.70 548.25 206.70Q537.45 206.70 532.88 210.23Q528.30 213.75 528.30 218.70Q528.30 222.75 531.60 225.23Q534.90 227.70 540.30 229.28Q545.70 230.85 552.22 232.20Q558.75 233.55 565.27 235.57Q571.80 237.60 577.27 240.90Q582.75 244.20 586.05 249.60Q589.35 255 589.35 263.25Q589.35 272.10 584.47 279.45Q579.60 286.80 569.70 291.30Q559.80 295.80 544.80 295.80M675.75 294L653.85 294L653.85 284.10Q647.10 295.20 629.25 295.20Q615 295.20 607.05 288.23Q599.10 281.25 599.10 270.75Q599.10 260.10 607.20 253.35Q615.30 246.60 633.75 246.60L652.35 246.60Q652.35 239.10 647.77 234.90Q643.20 230.70 633.75 230.70Q627.30 230.70 621.07 232.72Q614.85 234.75 610.50 238.20L602.10 221.85Q608.70 217.20 618 214.65Q627.30 212.10 636.90 212.10Q655.35 212.10 665.55 220.88Q675.75 229.65 675.75 247.95L675.75 294M652.35 268.50L652.35 260.25L636.30 260.25Q628.05 260.25 624.97 262.95Q621.90 265.65 621.90 269.70Q621.90 274.20 625.42 276.82Q628.95 279.45 635.10 279.45Q640.95 279.45 645.60 276.68Q650.25 273.90 652.35 268.50M724.05 295.20Q713.70 295.20 704.17 292.73Q694.65 290.25 689.10 286.50L696.90 269.70Q702.30 273.30 709.95 275.40Q717.60 277.50 724.95 277.50Q733.05 277.50 736.42 275.55Q739.80 273.60 739.80 270.15Q739.80 266.25 735 264.90Q730.20 263.55 723.45 262.50Q718.05 261.75 712.42 260.55Q706.80 259.35 701.92 256.95Q697.05 254.55 694.05 250.05Q691.05 245.55 691.05 238.20Q691.05 226.80 700.87 219.45Q710.70 212.10 728.40 212.10Q736.65 212.10 745.12 213.98Q753.60 215.85 759.45 219.15L751.65 235.80Q745.65 232.35 739.80 231.07Q733.95 229.80 728.40 229.80Q720.45 229.80 716.92 231.97Q713.40 234.15 713.40 237.30Q713.40 240.75 716.92 242.32Q720.45 243.90 726 244.72Q731.55 245.55 737.77 246.68Q744 247.80 749.55 250.13Q755.10 252.45 758.62 257.02Q762.15 261.60 762.15 269.55Q762.15 280.80 752.17 288Q742.20 295.20 724.05 295.20M803.70 295.20Q793.35 295.20 783.82 292.73Q774.30 290.25 768.75 286.50L776.55 269.70Q781.95 273.30 789.60 275.40Q797.25 277.50 804.60 277.50Q812.70 277.50 816.07 275.55Q819.45 273.60 819.45 270.15Q819.45 266.25 814.65 264.90Q809.85 263.55 803.10 262.50Q797.70 261.75 792.07 260.55Q786.45 259.35 781.57 256.95Q776.70 254.55 773.70 250.05Q770.70 245.55 770.70 238.20Q770.70 226.80 780.52 219.45Q790.35 212.10 808.05 212.10Q816.30 212.10 824.77 213.98Q833.25 215.85 839.10 219.15L831.30 235.80Q825.30 232.35 819.45 231.07Q813.60 229.80 808.05 229.80Q800.10 229.80 796.57 231.97Q793.05 234.15 793.05 237.30Q793.05 240.75 796.57 242.32Q800.10 243.90 805.65 244.72Q811.20 245.55 817.42 246.68Q823.65 247.80 829.20 250.13Q834.75 252.45 838.27 257.02Q841.80 261.60 841.80 269.55Q841.80 280.80 831.82 288Q821.85 295.20 803.70 295.20" fill="url(#brand)"/>
  <text x="104" y="430" font-family="Arial, Helvetica, sans-serif" font-size="40" fill="#c9d4e3">Standalone Sass utilities, &#224; la carte.</text>
  <text x="104" y="494" font-family="Arial, Helvetica, sans-serif" font-size="26" letter-spacing="3" fill="#5b6b82">MODULAR &#183; VALIDATED &#183; DEPENDENCY-FREE</text>
</svg>
